# This file uses centimeters as units for non-parametric coordinates.

mtllib treeLR.mtl
g default
v -0.660425 -0.000000 0.660426
v 0.660427 -0.000000 0.660426
v 0.000001 6.334126 0.000000
v -0.660425 -0.000000 -0.660426
v 0.660427 -0.000000 -0.660426
vt 0.773197 0.360974
vt 0.773197 0.360974
vt 0.850823 0.361924
vt 0.813975 0.642065
vt 0.773197 0.360974
vt 0.850823 0.361924
vt 0.813975 0.642065
vt 0.773197 0.360974
vt 0.850823 0.361924
vt 0.813975 0.642065
vt 0.813975 0.642065
vt 0.850823 0.361924
vn 0.000000 0.103703 0.994608
vn 0.000000 0.103703 0.994608
vn 0.000000 0.103703 0.994608
vn 0.000000 0.103703 -0.994608
vn 0.000000 0.103703 -0.994608
vn 0.000000 0.103703 -0.994608
vn 0.994608 0.103703 0.000000
vn 0.994608 0.103703 0.000000
vn 0.994608 0.103703 0.000000
vn -0.994608 0.103703 0.000000
vn -0.994608 0.103703 0.000000
vn -0.994608 0.103703 0.000000
s off
g Trunk TreeMesh
usemtl surfaceShader12SG
f 1/8/1 2/9/2 3/10/3
f 3/4/4 5/5/5 4/12/6
f 2/2/7 5/6/8 3/11/9
f 4/1/10 1/3/11 3/7/12
g default
v -1.496746 4.041331 -1.496748
v -1.496742 4.041331 1.496746
v 1.496752 4.041331 1.496746
v 1.496750 4.041331 -1.496748
v -1.950977 5.124286 -2.054339
v -1.950977 4.659901 2.054337
v 1.623041 7.199858 1.379145
v 1.781496 7.627546 -1.911421
v 0.000002 3.471666 0.000000
v 0.139563 8.492671 -0.022585
v -1.447594 7.743061 0.811386
v -1.592438 7.357418 -0.928350
v 2.175205 4.569976 -1.677154
v 2.465532 5.333920 1.801300
vt 0.614994 0.433884
vt 0.589473 0.457606
vt 0.607286 0.491993
vt 0.647053 0.494283
vt 0.044529 0.404310
vt 0.439067 0.455870
vt 0.390704 0.522711
vt 0.440508 0.431543
vt 0.400228 0.461161
vt 0.521016 0.414366
vt 0.047193 0.120310
vt 0.294570 0.133881
vt 0.299452 0.443855
vt 0.268912 0.400820
vt 0.087005 0.566906
vt 0.091205 0.534000
vt 0.246874 0.540553
vt 0.175162 0.215420
vt 0.080094 0.426651
vt 0.247528 0.545240
vt 0.300946 0.125044
vt 0.043035 0.164754
vn -0.881722 -0.470764 -0.030781
vn -0.881722 -0.470764 -0.030781
vn -0.881722 -0.470764 -0.030781
vn -0.881722 -0.470764 -0.030781
vn 0.069530 -0.425706 0.902186
vn 0.069530 -0.425706 0.902186
vn 0.039417 0.005526 0.999208
vn 0.056336 -0.222246 0.973362
vn 0.739290 -0.671804 0.046135
vn 0.739290 -0.671805 0.046135
vn 0.997562 -0.069537 -0.005938
vn 0.999915 0.005079 -0.012045
vn 0.015568 -0.418090 -0.908272
vn 0.015568 -0.418090 -0.908272
vn 0.054619 -0.219726 -0.974031
vn 0.066365 -0.155443 -0.985613
vn -0.355710 -0.934597 0.000000
vn -0.355710 -0.934597 0.000000
vn -0.355710 -0.934597 0.000000
vn 0.000000 -0.934597 0.355710
vn 0.000000 -0.934597 0.355710
vn 0.000000 -0.934597 0.355710
vn 0.355709 -0.934597 -0.000000
vn 0.355709 -0.934597 -0.000000
vn 0.355709 -0.934597 -0.000000
vn 0.000000 -0.934597 -0.355709
vn 0.000000 -0.934597 -0.355709
vn 0.000000 -0.934597 -0.355709
vn -0.986669 0.160552 0.026598
vn -0.962824 0.270122 0.002232
vn -0.973989 0.226271 0.012083
vn -0.986669 0.160552 0.026598
vn -0.075465 0.484398 0.871587
vn -0.080674 0.465288 0.881475
vn -0.101217 0.386152 0.916865
vn 0.577068 0.805871 0.132531
vn 0.577068 0.805871 0.132531
vn 0.577068 0.805871 0.132531
vn -0.281571 0.467671 -0.837855
vn -0.272519 0.562196 -0.780813
vn -0.263817 0.626733 -0.733216
vn 0.005846 0.738152 0.674610
vn -0.485725 0.861070 -0.150432
vn -0.227410 0.795299 -0.561947
vn 0.082091 -0.065624 -0.994462
vn 0.970397 0.239542 -0.030804
vn 0.970397 0.239542 -0.030804
vn 0.020725 0.229511 0.973085
s off
g TreeMesh Leaves
usemtl surfaceShader12SG
f 6/13/13 7/14/14 11/15/15 10/16/16
s 1
f 7/14/17 8/18/18 19/19/19 11/15/20
s 2
f 8/18/21 9/20/22 18/21/23 19/19/24
s 3
f 9/20/25 6/13/26 10/16/27 18/21/28
s off
f 7/14/29 6/13/30 14/22/31
f 8/18/32 7/14/33 14/22/34
f 9/20/35 8/18/36 14/22/37
f 6/13/38 9/20/39 14/22/40
s 4
f 11/17/41 16/27/42 17/28/43 10/31/44
s 5
f 12/32/45 16/27/46 11/17/47
s off
f 13/24/48 15/30/49 12/33/50
s 6
f 10/31/51 17/28/52 13/29/53
s 5
f 12/33/45 15/30/54 16/34/46
s 4
f 17/23/43 16/34/42 15/30/55
s 6
f 13/24/53 17/23/52 15/30/56
s 3
f 18/26/28 10/31/27 13/29/57
s 2
f 19/25/24 18/26/23 13/29/58 12/32/59
s 1
f 11/17/20 19/25/19 12/32/60
